<?xml version="1.0" encoding="utf-8"?>
<!-- Generator: Adobe Illustrator 25.4.1, SVG Export Plug-In . SVG Version: 6.00 Build 0)  -->
<svg version="1.1" id="Layer_1" xmlns="http://www.w3.org/2000/svg" xmlns:xlink="http://www.w3.org/1999/xlink" x="0px" y="0px"
	 viewBox="0 0 120 60" style="enable-background:new 0 0 120 60;" xml:space="preserve">
<style type="text/css">
	.st0{fill:#ECEDED;}
	.st1{fill:#00A83B;}
	.st2{fill:#373536;}
</style>
<path class="st0" d="M96.6,45.9c0.2,0,0.6,0,0.7,0.2c0,0.4-0.4,0.3-0.7,0.4C96.6,46.3,96.6,46.1,96.6,45.9z"/>
<g>
	<path class="st1" d="M81.7,0.7c0.4,0,0.3,0.4,0.6,0.6c0,0,0,0.1,0,0.1l0.1,0c0,0.1,0.1,0.3,0.1,0.4l0.1,0c0,0.1,0,0.2,0,0.3l0.1,0
		l-0.1,0.2l0.1,0c0,0,0,0.1,0,0.2l0.1,0l-0.1,0.2c0,0,0.1,0,0.2,0c0,0,0,0.1,0,0.2l0.1,0c0,0,0,0.1,0,0.2l0.1,0c0,0.2,0,0.3,0,0.5
		c0,0,0.1,0,0.2,0c0,0.2,0.1,0.3,0.1,0.5l0,0.1l0.1,0c0,0.1,0,0.2,0,0.3c0.1,0.2,0.2,0.5,0.3,0.7c0.1,0.2,0.1,0.5,0.1,0.7l0.1,0
		c0,0,0,0.1,0,0.1c0,0.1,0.1,0.3,0.1,0.4l0,0c0,0.1,0.1,0.2,0.1,0.4c0,0.2,0.1,0.5,0.1,0.7c0,0.1,0,0.2,0,0.3l0.1,0
		c0,0.2,0,0.3,0,0.5l0.1,0c0,0.1,0,0.2,0,0.3C84.9,9.1,85,9.4,85,9.7c0,0.1,0,0.2,0,0.2c0.1,0.3,0.1,0.5,0.1,0.8l0.1,0
		c0,0.7,0.2,1.4,0.1,2.2c0,0.8,0,1.7,0,2.5c0,0.6-0.1,1.2-0.1,1.8l-0.1,0c0,0.3,0,0.6-0.1,0.9c0,0.2,0,0.3,0,0.5l-0.1,0
		c0,0.2-0.1,0.4-0.1,0.6c0,0.2,0,0.4,0,0.6l-0.1,0c0,0.1,0.1,0.2,0.1,0.2l-0.1,0c0,0.2,0,0.4,0,0.5c0,0-0.1,0-0.1,0
		c-0.1,0.3-0.1,0.5-0.2,0.8c-0.1,0.4-0.3,0.8-0.4,1.2c0,0,0,0.1,0,0.1c-0.1,0.1-0.1,0.3-0.2,0.4c-0.1,0.2-0.2,0.4-0.3,0.7l-0.1,0
		c0,0,0,0.1,0,0.2l-0.1,0c0,0,0,0.1,0,0.2l-0.1,0c0,0.1-0.1,0.2-0.1,0.3c0,0,0,0.1,0,0.1c0,0-0.1,0-0.1,0c0,0.1-0.1,0.3-0.1,0.4
		c0,0-0.1,0-0.2,0c0,0.2,0,0.4-0.2,0.5c-0.1,0.3-0.3,0.5-0.5,0.7c0,0,0,0.1,0,0.1c-0.5,0.5-0.8,1.2-1.4,1.7c0,0,0,0.1,0,0.2
		c0,0-0.1,0-0.1,0c-0.1,0.1-0.1,0.2-0.2,0.4c-0.4,0.4-0.8,0.9-1.3,1.3c-0.1,0.1-0.2,0.1-0.3,0.3c0,0-0.1,0-0.1,0c0,0,0,0.1,0,0.1
		c-0.6,0.4-1.1,0.9-1.8,1.3l0,0c-0.2,0.1-0.3,0.2-0.5,0.3c-0.1,0.1-0.2,0.2-0.3,0.2c-0.1,0.1-0.3,0.2-0.4,0.2
		c-0.1,0.1-0.3,0.1-0.4,0.2c-0.1,0.1-0.2,0.1-0.4,0.2c-0.2,0.1-0.3,0.1-0.5,0.2l0,0.1c-0.2,0.1-0.5,0.1-0.7,0.3c-0.1,0-0.2,0-0.2,0
		c-0.2,0.2-0.6,0.2-0.8,0.4c-0.2,0-0.4,0.1-0.6,0.1l0,0.1c-0.3,0-0.5,0.1-0.8,0.2c-0.2,0-0.5,0.1-0.7,0.1l0,0.1
		c-0.3,0-0.6,0.1-0.9,0.2c-0.2,0.1-0.5,0.1-0.7,0.1c-0.2,0-0.3,0-0.5,0.1l0,0.1c-0.5,0.1-1.1,0.1-1.6,0.1c0,0,0-0.1,0-0.2
		c0.4-0.4,0.7-0.8,1.1-1.1c0,0,0-0.1,0-0.2l0.1,0c0.8-0.9,1.7-1.8,2.5-2.7c0.3-0.3,0.5-0.5,0.7-0.8c0,0,0.1,0,0.1,0c0,0,0-0.1,0-0.1
		c0.1-0.1,0.2-0.2,0.3-0.3c0,0,0.1,0,0.2-0.1c0.2-0.3,0.5-0.6,0.8-0.9c0,0,0.1,0,0.1,0c0.3-0.3,0.6-0.7,0.9-1
		c0.1-0.1,0.3-0.3,0.4-0.4c0.6-0.6,1.2-1.2,1.8-1.8c0,0,0.1,0,0.1,0c0-0.1,0-0.2,0-0.3c0.1,0,0.2,0,0.3,0c0-0.2,0-0.3,0-0.5
		c-1,0-1.9,0-2.9,0.1c-0.4,0-0.8,0-1.2,0c0.1-0.3,0.2-0.5,0.4-0.8c0.1-0.2,0.2-0.4,0.4-0.5c0.1-0.1,0.1-0.2,0.2-0.4
		c0.1-0.2,0.3-0.4,0.4-0.6c0.1-0.1,0.1-0.2,0.2-0.4c0,0,0.1,0,0.2,0c0-0.1,0-0.2,0-0.3l0.1,0c0-0.1,0.1-0.2,0.1-0.3l0.1,0
		c0.1-0.2,0.2-0.4,0.4-0.6c0.1-0.2,0.2-0.3,0.4-0.5c0,0,0-0.1,0-0.1l0.1,0c0,0,0-0.1,0-0.1c0.1-0.1,0.2-0.3,0.3-0.4
		c0.1-0.2,0.3-0.5,0.4-0.7c0,0,0.1,0,0.1,0c0-0.1,0-0.2,0-0.3c0.2-0.3,0.4-0.6,0.6-0.9c0.1-0.3,0.3-0.5,0.5-0.7c0-0.1,0-0.2,0-0.3
		l0.1,0c0.2-0.3,0.4-0.7,0.6-1c0,0,0.1,0,0.2,0c0-0.1,0-0.3,0-0.4c0,0,0.1,0,0.2,0c0.1-0.3,0.2-0.5,0.4-0.7c0,0,0-0.1,0.1-0.2
		c0.1-0.2,0.2-0.3,0.3-0.5c0.1-0.1,0.1-0.3,0.2-0.4l0.1,0l0-0.1l0.1,0c0-0.1,0-0.2,0-0.2c0.1,0,0.2,0,0.2,0c0-0.2,0.3-0.3,0.3-0.5
		c-0.3,0-0.7,0.3-0.7,0.6c-0.4,0.4-1,0.7-1.3,1.2c0,0-0.1,0-0.2,0c0,0,0,0.1,0,0.2c-0.2,0.1-0.2,0.2-0.3,0.4c0,0-0.1,0-0.2,0
		c0,0.1,0,0.2,0,0.2c-0.1,0-0.2,0-0.2,0c0,0.1,0,0.2,0,0.2c-0.1,0-0.2,0-0.2,0c0,0.1,0,0.2,0,0.2c-0.1,0-0.2,0-0.2,0
		c0,0,0,0.1,0,0.2c-0.1,0.1-0.3,0.3-0.4,0.4C76.1,15.9,76,16,76,16c-0.5,0.6-1.1,1.1-1.6,1.7c0,0-0.1,0-0.2,0c0,0,0,0.1,0,0.1
		c-0.2,0.1-0.3,0.3-0.5,0.5l-0.1,0c0,0.1,0,0.2,0,0.2c-0.1,0-0.2,0-0.2,0l0,0.1l-0.1,0c0,0.1,0,0.2,0,0.2c-0.1,0-0.2,0-0.2,0
		c0,0.1,0,0.2,0,0.2c0,0-0.1,0-0.1,0c-0.2,0.3-0.5,0.6-0.7,0.8c0,0-0.1,0-0.1,0c-0.2,0.5-0.7,0.8-1,1.1c-0.7,0.7-1.3,1.4-2,2
		c0,0,0,0.1,0,0.2c-0.1,0-0.2,0-0.2,0c0,0.1,0,0.2,0,0.2c-0.1,0-0.2,0-0.2,0c0,0.1,0,0.2,0,0.2c0,0-0.1,0-0.2,0
		c-0.1,0.1-0.1,0.3-0.3,0.4c0,0,0,0.1,0,0.1c-0.7,0.6-1.3,1.3-1.9,1.9c-0.1,0.1-0.2,0.3-0.2,0.5c1.4,0,2.8,0,4.2,0
		c-0.6,0.5-1.1,1.2-1.6,1.7c-1.1,1.3-2.3,2.5-3.4,3.8c-0.6,0.7-1.3,1.4-1.9,2.1c-0.4,0.4-0.8,0.8-1.1,1.3c0-0.2,0-0.3,0-0.5
		c0.1-0.2,0.2-0.5,0.4-0.7c0-0.1,0-0.2,0-0.2c0.1-0.1,0.1-0.2,0.2-0.2c0-0.1,0-0.2,0-0.3c0.2-0.3,0.4-0.6,0.4-1
		c-0.3-0.3-0.4-0.7-0.6-1.1c-0.1-0.3-0.3-0.6-0.4-1c-0.2-0.4-0.3-0.9-0.5-1.4c-0.1-0.4-0.2-0.7-0.3-1c0-0.3,0-0.5-0.1-0.8
		c0,0,0-0.1,0-0.1l-0.1,0c0.1-0.9-0.2-1.9-0.1-2.8c0.1-0.5,0.1-1,0.1-1.5l0.1,0c0.1-0.3,0.1-0.5,0.2-0.8c0.1-0.4,0.2-0.8,0.4-1.1
		c0.1-0.2,0.1-0.3,0.2-0.5c0.1-0.2,0.2-0.3,0.2-0.5l0.1,0l0-0.1c0,0,0.1,0,0.1,0c0-0.1,0-0.3,0-0.4c0,0,0.1,0,0.2,0
		c0-0.2,0.1-0.4,0.2-0.5c0,0,0-0.1,0-0.2c0.1-0.2,0.2-0.3,0.3-0.5l0,0c0-0.2,0.1-0.4,0.3-0.5c0.2-0.3,0.4-0.6,0.6-0.9l0,0
		c0.2-0.3,0.4-0.5,0.6-0.8c0.3-0.4,0.6-0.8,1-1.1c0,0,0-0.1,0-0.1c0,0,0.1,0,0.2,0c0.1-0.2,0.3-0.3,0.4-0.5c0.1-0.1,0.3-0.3,0.4-0.4
		c0.5-0.4,1-0.9,1.6-1.4c0.2-0.2,0.5-0.4,0.7-0.5c0.1-0.1,0.2-0.2,0.3-0.3c0,0,0.1,0,0.2-0.1c0.2-0.2,0.5-0.4,0.7-0.6
		c0,0,0.1,0,0.2,0c0.3-0.3,0.6-0.5,0.9-0.7c0,0,0.1-0.1,0.2-0.1c0.2-0.2,0.4-0.3,0.7-0.4c0,0,0-0.1,0-0.2c0.1,0,0.2,0,0.2,0l0-0.1
		c0.1,0,0.2,0,0.2,0.1l0-0.1c0.1,0,0.2-0.1,0.3-0.1l0-0.1c0.1,0,0.3,0,0.3,0c0,0,0-0.1,0-0.2c0.1,0,0.2-0.1,0.4-0.1l0-0.1
		c0.3-0.2,0.6-0.4,0.9-0.5c0.1-0.1,0.2-0.2,0.3-0.2c0.1,0,0.2,0,0.2,0c0,0,0-0.1,0-0.1c0.2-0.1,0.4-0.3,0.6-0.4l0,0
		c0.4-0.2,0.8-0.6,1.2-0.8V6.8c0.1,0,0.2,0,0.3,0c0,0,0-0.1,0-0.1c0.4-0.3,0.8-0.7,1.2-1c0.1,0,0.2,0,0.2,0c0-0.1,0-0.2,0-0.2
		c0,0,0.1,0,0.2,0c0.1-0.1,0.1-0.2,0.2-0.3c0,0,0.1,0,0.2,0c0-0.1,0-0.2,0-0.2c0.1,0,0.2,0,0.2,0c0-0.1,0-0.2,0-0.2
		c0.1,0,0.2,0,0.2,0c0-0.1,0-0.2,0-0.2c0,0,0.1,0,0.1,0c0-0.1,0.1-0.3,0.2-0.4c0.1-0.2,0.3-0.3,0.4-0.5c0.1-0.1,0.1-0.2,0.2-0.3
		c0,0,0-0.1,0-0.1c0.1,0,0.2,0,0.3-0.1c0-0.2,0-0.3,0-0.5c0,0,0.1,0,0.2,0c0-0.1,0-0.2,0-0.3c0.1-0.1,0.1-0.2,0.2-0.2
		c0-0.1,0-0.3,0-0.3c0.1,0,0.2,0,0.2,0c0-0.1,0-0.2,0-0.2l0.1,0c0-0.1,0-0.2,0-0.4C81.6,1,81.7,0.9,81.7,0.7z"/>
</g>
<path class="st2" d="M9.1,36.5c0-0.9,0.8-1.8,1.7-1.8c2.3,0,4.6,0,7,0c0,0.6,0,1.1,0,1.7c-2.3,0-4.6,0-6.9,0c0,0.8,0,1.6,0,2.4
	c2.3,0,4.6,0,6.9,0c0,0.6,0,1.1,0,1.7c-2.3,0-4.6,0-6.9,0c0,0.8,0,1.6,0,2.4c2.3,0,4.6,0,6.9,0c0,0.6,0,1.2,0,1.7
	c-2.3,0-4.6,0-6.9,0c-1,0-1.9-0.9-1.8-1.9C9.1,40.7,9.1,38.6,9.1,36.5z"/>
<path class="st2" d="M18.6,34.8c0.6,0,1.2,0,1.7,0c1.7,2.3,3.5,4.6,5.2,6.9c0-2.3,0-4.6,0-6.9c0.6,0,1.2,0,1.7,0c0,3.3,0,6.6,0,10
	c-0.6,0-1.1,0-1.7,0c-1.7-2.3-3.5-4.6-5.2-7c0,2.3,0,4.6,0,7c-0.6,0-1.1,0-1.7,0C18.6,41.4,18.6,38.1,18.6,34.8z"/>
<path class="st2" d="M28.5,36.4c0-0.9,0.9-1.7,1.8-1.7c2.3,0,4.6,0,6.9,0c0,0.6,0,1.1,0,1.7c-2.3,0-4.6,0-6.9,0c0,0.8,0,1.6,0,2.4
	c2.3,0,4.6,0,6.9,0c0,0.6,0,1.1,0,1.7c-2.3,0-4.6,0-6.9,0c0,0.8,0,1.6,0,2.4c2.3,0,4.6,0,6.9,0c0,0.6,0,1.2,0,1.7
	c-2.3,0-4.6,0-6.9,0c-1,0-1.8-0.9-1.8-1.9C28.5,40.7,28.5,38.6,28.5,36.4z"/>
<g>
	<path class="st2" d="M37.9,34.8c2.3,0,4.6,0,6.9,0c0.9,0,1.7,0.7,1.8,1.6c0,0.7,0,1.3,0,2c0,0.4,0.1,0.9-0.1,1.3
		c-0.2,0.6-0.8,1.1-1.4,1.1c-0.5,0-0.9,0-1.4,0c1,1.3,2,2.7,3,4c-0.8,0-1.6,0-2.4,0c-1-1.3-2-2.7-3-4c-0.5,0-1,0-1.5,0
		c0,1.3,0,2.7,0,4c-0.6,0-1.1,0-1.7,0C37.9,41.4,37.9,38.1,37.9,34.8z M39.7,36.5c0,0.9,0,1.7,0,2.6c1.7,0,3.5,0,5.2,0
		c0-0.9,0-1.7,0-2.6C43.1,36.5,41.4,36.5,39.7,36.5z"/>
</g>
<path class="st2" d="M47.9,36.4c0-0.9,0.8-1.7,1.7-1.6c2.3,0,4.6,0,6.9,0c0,0.6,0,1.1,0,1.7c-2.3,0-4.6,0-6.9,0c0,2.2,0,4.4,0,6.5
	c1.7,0,3.5,0,5.2,0c0-0.8,0-1.6,0-2.4c-1.1,0-2.1,0-3.2,0c0-0.6,0-1.1,0-1.7c1.6,0,3.3,0,4.9,0c0,2,0,3.9,0,5.9c-2.3,0-4.6,0-6.8,0
	c-1,0-1.9-0.9-1.8-1.9C47.9,40.7,47.8,38.6,47.9,36.4z"/>
<path class="st2" d="M57.8,34.8c0.6,0,1.1,0,1.7,0c0.9,1.2,1.7,2.3,2.6,3.5c0.9-1.1,1.7-2.3,2.6-3.5c0.6,0,1.2,0,1.7,0
	c-1.2,1.7-2.3,3.3-3.5,5c0,1.7,0,3.3,0,5c-0.6,0-1.1,0-1.7,0c0-1.6,0-3.2,0-4.8c0-0.1-0.1-0.3-0.2-0.4C60,37.9,58.9,36.3,57.8,34.8z
	"/>
<path class="st2" d="M71.1,36.5c0-0.9,0.8-1.8,1.8-1.8c2.3,0,4.6,0,6.9,0c0,0.6,0,1.1,0,1.7c-2.3,0-4.6,0-6.9,0c0,2.2,0,4.4,0,6.5
	c2.3,0,4.6,0,6.9,0c0,0.6,0,1.2,0,1.7c-2.3,0-4.6,0-6.9,0c-1,0-1.8-0.9-1.8-1.9C71.1,40.7,71.1,38.6,71.1,36.5z"/>
<g>
	<path class="st2" d="M81.7,34.8c2.1,0,4.3,0,6.4,0c0.4,0,0.8,0,1.1,0.1c0.7,0.3,1.1,1,1.1,1.8c0,2,0,4,0,6c0,0.5-0.1,1-0.3,1.3
		c-0.3,0.5-1,0.8-1.5,0.8c-1.9,0-3.7,0-5.6,0c-0.5,0-1.1,0.1-1.6-0.2c-0.6-0.3-1.1-1-1-1.7c0-2.1,0-4.2,0-6.3
		C80.2,35.7,80.9,34.9,81.7,34.8z M82,36.5c0,2.2,0,4.4,0,6.5c2.2,0,4.4,0,6.6,0c0-2.2,0-4.3,0-6.5C86.4,36.5,84.2,36.5,82,36.5z"/>
</g>
<path class="st2" d="M91.6,34.8c0.6,0,1.2,0,1.7,0c0.8,2.6,1.7,5.2,2.6,7.9c0.9-2.6,1.7-5.2,2.6-7.9c0.6,0,1.1,0,1.7,0
	c-1.1,3.3-2.2,6.6-3.3,10c-0.7,0-1.3,0-2,0C93.8,41.4,92.7,38.1,91.6,34.8z"/>
<path class="st2" d="M101.9,35c0.4-0.2,0.8-0.2,1.3-0.2c2.1,0,4.3,0,6.4,0c0,0.6,0,1.1,0,1.7c-2.3,0-4.6,0-6.9,0c0,0.8,0,1.6,0,2.4
	c2.3,0,4.6,0,6.9,0c0,0.6,0,1.1,0,1.7c-2.3,0-4.6,0-6.9,0c0,0.8,0,1.6,0,2.4c2.3,0,4.6,0,6.9,0c0,0.6,0,1.2,0,1.7
	c-2.3,0-4.5,0-6.8,0c-0.7,0-1.3-0.3-1.7-0.9c-0.2-0.3-0.3-0.7-0.2-1.1c0-2,0-4.1,0-6.1C100.9,35.9,101.3,35.2,101.9,35z"/>
<path class="st2" d="M95.6,45.5c0.1,0,0.2,0,0.3,0c-0.2,0.4-0.4,0.9-0.4,1.3c0,0.5,0.2,0.9,0.3,1.4c-0.1,0-0.2,0-0.3,0
	c-0.2-0.4-0.5-0.9-0.4-1.4C95.1,46.4,95.3,45.9,95.6,45.5z"/>
<path class="st2" d="M101.8,45.5c0.1,0,0.2,0,0.3,0c0.2,0.4,0.5,0.9,0.4,1.4c0,0.5-0.2,0.9-0.4,1.4c-0.1,0-0.3,0-0.3,0
	c0.2-0.5,0.4-1.1,0.3-1.7C102,46.2,101.9,45.8,101.8,45.5z"/>
<g>
	<path class="st2" d="M96.1,45.6c0.5,0,1-0.1,1.4,0.1c0.3,0.2,0.3,0.8,0,1c-0.3,0.2-0.6,0.2-1,0.2c0,0.2,0,0.5,0,0.7
		c-0.2,0-0.3,0-0.5,0C96.1,46.9,96.1,46.2,96.1,45.6z M96.6,45.9c0,0.2,0,0.4,0,0.6c0.3,0,0.7,0,0.7-0.4
		C97.2,45.9,96.8,46,96.6,45.9z"/>
</g>
<path class="st2" d="M97.9,45.5c0.2,0,0.3,0,0.5,0c0.3,0.4,0.4,1,0.6,1.4c0.2-0.5,0.3-1,0.5-1.4c0.2,0,0.3,0,0.5,0
	c-0.2,0.7-0.5,1.4-0.8,2.1c-0.2,0-0.3,0-0.5,0C98.4,46.9,98.1,46.2,97.9,45.5z"/>
<path class="st2" d="M100,45.6c0.6,0,1.1,0,1.7,0c0,0.1,0,0.3,0,0.4c-0.2,0-0.4,0-0.6,0c0,0.6,0,1.1,0,1.7c-0.2,0-0.3,0-0.5,0
	c0-0.6,0-1.1,0-1.7c-0.2,0-0.4,0-0.6,0C100,45.8,100,45.6,100,45.6z"/>
<path class="st2" d="M103.7,45.6c0.1,0,0.3,0,0.4,0c0,0.6,0,1.1,0,1.7c0.4,0,0.7,0,1.1,0c0,0.1,0,0.3,0,0.4c-0.5,0-1,0-1.5,0
	C103.7,46.9,103.7,46.3,103.7,45.6z"/>
<path class="st2" d="M105.1,45.5c0.6,0,1.1,0,1.7,0c0,0.1,0,0.3,0,0.4c-0.2,0-0.4,0-0.6,0c0,0.6,0,1.1,0,1.7c-0.2,0-0.3,0-0.5,0
	c0-0.6,0-1.1,0-1.7c-0.2,0-0.4,0-0.6,0C105.1,45.8,105.1,45.6,105.1,45.5z"/>
<g>
	<path class="st2" d="M107.1,45.6c0.4,0,0.9-0.1,1.3,0.1c0.4,0.2,0.5,0.7,0.5,1.1c0,0.4-0.2,0.8-0.6,0.8c-0.4,0.1-0.8,0-1.2,0
		C107.1,46.9,107.1,46.2,107.1,45.6z M107.5,45.9c0,0.4,0,0.9,0,1.3c0.2,0,0.5,0,0.7-0.1c0.2-0.3,0.2-0.6,0.1-0.9
		C108.2,45.9,107.8,45.9,107.5,45.9z"/>
</g>
<path class="st2" d="M109.2,47.2c0.1,0,0.3,0,0.5,0c0,0.1,0,0.3,0,0.4c-0.2,0-0.3,0-0.5,0C109.2,47.5,109.2,47.3,109.2,47.2z"/>
<path class="st2" d="M73.9,50.4c0-0.4,0.6-0.6,0.9-0.2c-0.2,1-0.5,2-0.5,3.1c0,0.4-0.1,0.8,0.2,1.1c0.2,0.1,0.5,0,0.7-0.1
	c0.5-0.3,0.9-0.8,1.3-1.2c0-0.3,0-0.7,0.3-0.9C77,52,77.3,52,77.5,52c0.1,0.6-0.2,1.2-0.1,1.8c0,0.3,0.1,0.5,0.2,0.8
	c0.4,0,0.7-0.3,1-0.5c0.6-0.5,1.1-1,1.5-1.5c0.2-0.5,0.1-1.2,0.4-1.7c0.2-0.5,0.8-1,1.4-0.8c0.7,0.3,0.4,1.5-0.3,1.7
	c0.1-0.4,0.1-0.8-0.1-1.2c-0.5,0.5-0.6,1.3-0.7,2c0.6,0.1,1.1,0,1.7,0c0.3-0.6,0.8-1.2,1.5-1.2c0.6,0.1,0.7,0.8,0.5,1.3
	c-0.3,0.6-0.9,1-1.4,1.4c0.3,0.5,1,0.3,1.4,0.1c0.7-0.3,1.2-1,1.8-1.4c0.3-0.2,0.3,0.2,0.2,0.4c-0.5,0.7-1.2,1.4-2.1,1.8
	c-0.6,0.2-1.3,0.3-1.8-0.1c-0.4-0.5-0.4-1.1-0.3-1.7c-0.5,0.1-1,0.1-1.5,0.2c-0.2,0.9-0.2,1.9-0.4,2.8c-0.2,0.4-0.5,1-1.1,0.9
	c-0.2,0-0.3-0.1-0.5-0.2c0-0.2,0.1-0.4,0.2-0.5c0.1,0,0.3,0,0.4,0c0.4-0.9,0.4-1.9,0.5-2.9c-0.4,0.7-1,1.3-1.7,1.7
	c-0.4,0.3-1,0.3-1.4,0c-0.4-0.3-0.4-0.8-0.5-1.2c-0.3,0.5-0.8,0.9-1.3,1.1c-0.4,0.2-1,0.1-1.3-0.2c-0.4-0.3-0.5-0.9-0.4-1.4
	C73.5,52.4,73.7,51.4,73.9,50.4z M83.2,53.4c0.4-0.3,0.9-0.7,0.8-1.3C83.5,52.3,83.3,52.9,83.2,53.4z"/>
<path class="st2" d="M77.3,50c0.3-0.2,0.9,0,0.7,0.4c0,0.5-0.7,0.6-1.1,0.3C76.9,50.4,77.1,50.2,77.3,50z"/>
<g>
	<path class="st2" d="M61.9,50.1c0.4-0.2,1,0,1.1,0.5c0.1,0.5-0.2,1.1-0.7,1.2c0.1-0.4,0.1-0.8-0.1-1.2c-0.5,0.5-0.6,1.3-0.7,2
		c0.6,0.1,1.2,0,1.8-0.1c0.2,0,0.3-0.2,0.4-0.3c0.3-0.3,0.7-0.6,1.1-0.6c0.3,0,0.5,0.4,0.8,0.5c0.5,0.3,1.1,0.3,1.7,0.2
		c0.1-0.2,0.1-0.4,0.4-0.4c0.2-0.1,0.5,0.1,0.5,0.3c0,0.4-0.1,0.9-0.2,1.3c0.3-0.5,0.7-1.1,1.3-1.4c0.4-0.2,0.8-0.1,1.1,0.1
		c0.2,0.1,0.2,0.6-0.1,0.6c-0.4,0-0.7,0-1,0.3c-0.7,0.5-1.1,1.4-1.3,2.3c-0.2,0-0.4,0.1-0.6,0.1c-0.2-0.8-0.1-1.6,0-2.4
		c-0.5,0.1-1,0.1-1.4-0.1c0.2,1.3-1.2,2.5-2.5,2.2c-0.3-0.1-0.6-0.5-0.6-0.9c0-0.4,0.1-0.8,0.3-1.2c-0.5,0.2-1,0.2-1.6,0.2
		c-0.1,0.5-0.2,1.1-0.2,1.6c-0.1,0.6-0.2,1.3-0.6,1.8c-0.3,0.3-0.9,0.4-1.1,0.1c-0.1-0.2,0.1-0.4,0.2-0.5c0.1,0,0.3,0,0.4,0
		c0.3-0.8,0.4-1.7,0.5-2.6c0.1-0.2-0.1-0.4-0.2-0.6c0.1-0.2,0.3-0.4,0.4-0.6c0.2-0.4,0.1-0.9,0.3-1.3C61.2,50.7,61.5,50.4,61.9,50.1
		z M63.5,54.3c0,0.3,0.5,0.3,0.7,0.1c0.5-0.3,1.1-0.8,0.9-1.5c-0.1-0.3-0.4-0.3-0.6-0.5C64,53,63.4,53.6,63.5,54.3z"/>
</g>
<path class="st2" d="M33.2,50.4c0.9,0.1,1.9,0.1,2.7-0.2c0.2,0,0.5-0.2,0.8,0c0.2,0.2,0.1,0.7-0.2,0.7c-1,0.3-2.1,0.3-3.2,0.3
	c0,0.4-0.1,0.8-0.1,1.1c0.6,0,1.1,0,1.7-0.1c0.3,0,0.5-0.1,0.8-0.1c0.2,0,0.2,0.3,0.2,0.4c0,0.3-0.3,0.3-0.5,0.4
	c-0.8,0.1-1.6,0.1-2.3,0.2c-0.1,0.4-0.2,0.9-0.3,1.3c1-0.1,2-0.1,3-0.4c0.2,0,0.3-0.1,0.5,0c0.3,0.2,0.2,0.6-0.1,0.7
	c-1.1,0.3-2.3,0.2-3.4,0.5c-0.2,0.1-0.4,0.1-0.6,0c-0.2-0.2-0.2-0.5-0.2-0.8c0.1-0.7,0.3-1.3,0.4-1.9c0.1-0.6,0.1-1.2,0.2-1.7
	C32.5,50.6,32.9,50.4,33.2,50.4z"/>
<g>
	<path class="st2" d="M43.2,51.8c0.3-0.3,0.8-0.5,1.2-0.3c0.4,0.2,0.4,0.8,0.2,1.2c-0.3,0.6-0.9,1-1.5,1.4c0.2,0.2,0.5,0.4,0.8,0.3
		c1-0.1,1.7-0.9,2.3-1.5c0.1-0.3,0.1-0.5,0.2-0.8c0.2-0.2,0.6-0.2,0.7,0.1c0,0.5-0.1,0.9-0.2,1.3c0.3-0.4,0.6-0.9,1-1.2
		c0.4-0.3,0.9-0.3,1.3-0.1c0.2,0.1,0.2,0.4,0,0.6c-0.4,0.1-0.8,0-1.1,0.2c-0.7,0.5-1.1,1.3-1.3,2.1c-0.1,0.3-0.7,0.3-0.7,0
		c-0.1-0.5,0-1,0-1.5c-0.5,0.6-1.2,1.1-1.9,1.4c-0.5,0.2-1.1,0.2-1.5-0.2c-0.3-0.2-0.3-0.6-0.4-0.9c-0.5,0.4-1,1-1.7,0.9
		c-0.3,0-0.5-0.2-0.7-0.4c-0.3-0.5-0.1-1.1-0.5-1.5c-0.7,0.6-1,1.5-1.8,1.9c-0.3,0.1-0.5-0.2-0.5-0.5c-0.1-0.7,0-1.5,0.3-2.2
		c0.1-0.2,0.3-0.3,0.5-0.3c0.1,0.1,0.2,0.2,0.3,0.3c0,0.5-0.2,1.1-0.4,1.6c0.4-0.5,0.7-1,1.2-1.4c0.3-0.2,0.9-0.2,1.1,0.1
		c0.3,0.5,0.1,1.2,0.5,1.7c0.3,0.1,0.6-0.1,0.8-0.3c0.3-0.2,0.6-0.5,0.9-0.8C42.7,52.6,42.8,52.1,43.2,51.8z M43.9,52.1
		c-0.4,0.3-0.6,0.8-0.7,1.3c0.3-0.3,0.7-0.5,0.8-1C44,52.3,44.1,52.1,43.9,52.1z"/>
</g>
<g>
	<path class="st2" d="M50.2,52.4c0.4-0.4,0.9-0.8,1.4-0.9c0.3,0,0.8,0.2,0.7,0.6c-0.1,0.9-0.1,1.7-0.2,2.6c-0.1,0.7-0.2,1.4-0.8,1.9
		c-0.5,0.4-1.2,0.2-1.7-0.1c-0.4-0.2-0.8-0.6-0.7-1.1c0.5,0.2,0.8,0.6,1.4,0.7c0.3,0.1,0.6,0,0.8-0.3c0.3-0.6,0.3-1.2,0.4-1.8
		c-0.5,0.4-1,0.8-1.6,0.8c-0.4,0-0.6-0.5-0.5-0.8C49.5,53.5,49.8,52.9,50.2,52.4z M50.2,54.2c0.5-0.1,1-0.4,1.3-0.8
		c0.1-0.4,0.2-0.9,0.1-1.3C50.9,52.7,50.3,53.4,50.2,54.2z"/>
</g>
<path class="st2" d="M55.8,51.9c0.1-0.2,0.4-0.2,0.6-0.1c0.1,0.1,0.2,0.3,0.1,0.5c-0.1,1.2-0.1,2.5-0.6,3.7c-0.2,0.5-0.5,0.9-1,1
	c-0.7,0.1-1.4-0.2-1.9-0.7c-0.2-0.2-0.1-0.7,0.2-0.6c0.4,0.3,0.7,0.6,1.2,0.6c0.3,0.1,0.5-0.2,0.7-0.5c0.3-0.5,0.4-1.1,0.4-1.7
	c-0.6,0.4-1.2,0.9-1.9,0.8c-0.5-0.1-0.6-0.6-0.5-1c0.1-0.6,0.2-1.2,0.5-1.8c0.1-0.3,0.4-0.2,0.7-0.2c0.3,0.5-0.2,1-0.3,1.5
	c-0.1,0.3-0.1,0.6,0,0.8c0.6,0,1.1-0.3,1.5-0.8C55.8,53,55.6,52.4,55.8,51.9z"/>
</svg>
